<?xml version="1.0" encoding="UTF-8" standalone="no"?>
<!DOCTYPE svg PUBLIC "-//W3C//DTD SVG 1.1//EN" "http://www.w3.org/Graphics/SVG/1.1/DTD/svg11.dtd">
<svg width="100%" height="100%" viewBox="0 0 2481 3508" version="1.1" xmlns="http://www.w3.org/2000/svg" xmlns:xlink="http://www.w3.org/1999/xlink" xml:space="preserve" xmlns:serif="http://www.serif.com/" style="fill-rule:evenodd;clip-rule:evenodd;stroke-linejoin:round;stroke-miterlimit:1.41421;">
    <g transform="matrix(1,0,0,1.03421,0,-120.019)">
        <rect x="0" y="1811.96" width="2480.32" height="1695.91"/>
    </g>
    <g transform="matrix(1,0,0,1,188.339,-390.488)">
        <g>
            <g id="Layer1">
                <g transform="matrix(1,0,0,1,312.659,204.548)">
                    <circle cx="739.16" cy="1003.63" r="521.925" style="fill:rgb(7,204,186);"/>
                </g>
                <g transform="matrix(2.67884,0,0,2.63095,204.442,-466.663)">
                    <path d="M383.98,506.313L352.291,539.867L368.135,565.032L394.233,544.527L383.98,506.313ZM316.873,487.671L316.873,613.499L411.01,613.499C411.01,613.499 424.991,547.323 442.7,523.089L363.475,578.081L316.873,487.671ZM239.512,544.527L265.61,565.032L281.455,539.867L249.765,506.313L239.512,544.527ZM270.27,578.081L191.045,523.089C208.754,547.323 222.735,613.499 222.735,613.499L316.873,613.499L316.873,487.671L270.27,578.081ZM411.01,626.547L252.788,626.547L222.735,626.547L222.735,637.732L411.01,637.732L411.01,626.547Z" style="fill:white;fill-rule:nonzero;"/>
                </g>
                <g transform="matrix(2.88815,0,0,2.88815,-2375.2,-2236.66)">
                    <text x="1099.55px" y="1249.24px" style="font-family:'Lato-Light', 'Lato', sans-serif;font-weight:300;font-size:50px;fill:white;">L<tspan x="1122.75px 1155.23px 1189.28px 1206.73px 1244.4px " y="1249.24px 1249.24px 1249.24px 1249.24px 1249.24px ">YRICS</tspan></text>
                </g>
                <g transform="matrix(3.49376,0,0,3.49376,-3036.42,-2831.26)">
                    <text x="1099.55px" y="1249.24px" style="font-family:'Lato-Black', 'Lato', sans-serif;font-weight:900;font-size:50px;fill:white;">K<tspan x="1140.25px 1161.25px 1204.05px " y="1249.24px 1249.24px 1249.24px ">ING</tspan></text>
                </g>
            </g>
        </g>
    </g>
    <g transform="matrix(1,0,0,1,188.339,1422.73)">
        <g>
            <g id="Layer11" serif:id="Layer1">
                <g transform="matrix(1,0,0,1,312.659,204.548)">
                    <circle cx="739.16" cy="1003.63" r="521.925" style="fill:rgb(7,204,186);"/>
                </g>
                <g transform="matrix(2.67884,0,0,2.63095,204.442,-466.663)">
                    <path d="M383.98,506.313L352.291,539.867L368.135,565.032L394.233,544.527L383.98,506.313ZM316.873,487.671L316.873,613.499L411.01,613.499C411.01,613.499 424.991,547.323 442.7,523.089L363.475,578.081L316.873,487.671ZM239.512,544.527L265.61,565.032L281.455,539.867L249.765,506.313L239.512,544.527ZM270.27,578.081L191.045,523.089C208.754,547.323 222.735,613.499 222.735,613.499L316.873,613.499L316.873,487.671L270.27,578.081ZM411.01,626.547L252.788,626.547L222.735,626.547L222.735,637.732L411.01,637.732L411.01,626.547Z" style="fill:white;fill-rule:nonzero;"/>
                </g>
                <g transform="matrix(2.88815,0,0,2.88815,-2375.2,-2237.66)">
                    <text x="1099.55px" y="1249.24px" style="font-family:'Lato-Light', 'Lato', sans-serif;font-weight:300;font-size:50px;fill:white;">L<tspan x="1122.75px 1155.23px 1189.28px 1206.73px 1244.4px " y="1249.24px 1249.24px 1249.24px 1249.24px 1249.24px ">YRICS</tspan></text>
                </g>
                <g transform="matrix(3.49376,0,0,3.49376,-3036.42,-2831.26)">
                    <text x="1099.55px" y="1249.24px" style="font-family:'Lato-Black', 'Lato', sans-serif;font-weight:900;font-size:50px;fill:white;">K<tspan x="1140.25px 1161.25px 1204.05px " y="1249.24px 1249.24px 1249.24px ">ING</tspan></text>
                </g>
            </g>
        </g>
    </g>
</svg>
